<?xml version="1.0" encoding="utf-8"?>
<svg xmlns="http://www.w3.org/2000/svg" viewBox="27.7463 6.942 39.7498 41.59" width="39.7498px" height="41.59px">
  <path d="M 27.767 28.34 C 27.565 27.051 28.902 25.356 29.177 25.084 C 30.399 23.877 31.621 22.67 32.845 21.464 C 37.442 16.933 42.041 12.404 46.639 7.873 C 46.711 7.803 46.775 7.724 46.843 7.65 C 47.02 7.528 47.153 7.358 47.309 7.213 C 47.405 7.124 47.498 7.03 47.589 6.942 C 47.711 6.966 47.764 7.062 47.834 7.131 C 50.109 9.37 52.383 11.61 54.657 13.849 C 54.736 13.926 54.817 14.002 54.892 14.073 C 54.974 14.045 54.952 13.987 54.952 13.942 C 54.953 13.191 54.952 12.44 54.953 11.689 C 54.953 11.547 54.958 11.407 54.992 11.266 C 55.136 10.673 55.695 10.245 56.279 10.243 C 56.707 10.241 57.135 10.241 57.562 10.241 C 58.57 10.241 59.577 10.241 60.585 10.241 C 60.759 10.241 60.929 10.251 61.097 10.304 C 61.636 10.474 62.018 10.963 62.043 11.524 C 62.048 11.636 62.046 11.748 62.046 11.86 C 62.046 14.823 62.046 17.788 62.046 20.752 C 62.046 20.874 62.018 21.008 62.061 21.113 C 62.104 21.218 62.217 21.296 62.303 21.382 C 63.425 22.488 64.55 23.592 65.67 24.7 C 65.944 24.971 66.209 25.253 66.47 25.536 C 66.683 25.769 66.865 26.026 67.033 26.294 C 67.807 27.536 67.544 28.989 66.738 29.952 C 66.454 30.291 66.114 30.561 65.724 30.771 C 65.645 30.813 65.548 30.825 65.492 30.903 C 65.476 30.952 65.512 30.981 65.531 31.011 C 65.852 31.522 66.022 32.077 66.036 32.679 C 66.037 32.771 66.041 32.862 66.041 32.953 C 66.041 36.983 66.041 41.013 66.041 45.043 C 66.041 45.43 66.008 45.811 65.895 46.185 C 65.519 47.423 64.349 48.422 62.979 48.513 C 62.817 48.524 62.654 48.53 62.491 48.53 C 52.577 48.531 42.663 48.53 32.749 48.532 C 32.236 48.532 31.73 48.491 31.257 48.278 C 29.948 47.686 29.251 46.676 29.184 45.24 C 29.177 45.088 29.183 44.935 29.183 44.783 C 29.183 40.835 29.184 36.886 29.182 32.937 C 29.182 32.402 29.261 31.886 29.489 31.399 C 29.548 31.27 29.622 31.148 29.691 31.024 C 29.756 30.908 29.754 30.894 29.648 30.838 C 29.622 30.824 29.593 30.813 29.566 30.798 C 28.561 30.274 27.951 29.515 27.767 28.34 Z" fill="black" transform="matrix(1, 0, 0, 1, 0, -3.552713678800501e-15)"/>
  <path d="M 64.678 38.988 C 64.678 41.008 64.678 43.029 64.678 45.049 C 64.678 45.273 64.674 45.494 64.615 45.714 C 64.356 46.672 63.48 47.168 62.789 47.168 C 62.688 47.168 62.586 47.171 62.484 47.171 C 58.473 47.171 54.461 47.171 50.45 47.171 C 50.237 47.171 50.023 47.179 49.812 47.129 C 48.911 46.918 48.298 46.186 48.252 45.26 C 48.247 45.159 48.249 45.057 48.249 44.956 C 48.249 40.976 48.249 36.996 48.249 33.016 C 48.249 32.823 48.255 32.632 48.285 32.439 C 48.423 31.563 49.175 30.907 49.965 30.823 C 50.126 30.806 50.289 30.794 50.452 30.794 C 54.463 30.792 58.474 30.792 62.485 30.792 C 62.751 30.792 63.013 30.81 63.27 30.884 C 64.088 31.121 64.674 31.9 64.676 32.714 C 64.676 32.825 64.678 32.937 64.678 33.049 C 64.678 35.029 64.678 37.008 64.678 38.989 L 64.678 38.988 Z" fill="#1FB0FF" transform="matrix(1, 0, 0, 1, 0, -3.552713678800501e-15)"/>
  <path d="M 46.97 39.008 C 46.97 40.987 46.97 42.967 46.97 44.946 C 46.97 45.078 46.968 45.21 46.966 45.342 C 46.951 46.208 46.19 47.1 45.2 47.171 C 44.997 47.185 44.794 47.197 44.591 47.197 C 40.713 47.198 36.834 47.198 32.956 47.197 C 32.743 47.197 32.529 47.185 32.316 47.169 C 31.497 47.11 30.7 46.428 30.578 45.511 C 30.554 45.329 30.541 45.149 30.541 44.965 C 30.542 40.996 30.542 37.027 30.542 33.057 C 30.542 32.762 30.558 32.469 30.645 32.184 C 30.887 31.401 31.66 30.828 32.448 30.822 C 32.549 30.822 32.651 30.819 32.753 30.819 C 36.763 30.819 40.775 30.819 44.785 30.819 C 45.029 30.819 45.27 30.819 45.512 30.882 C 46.348 31.102 46.962 31.882 46.966 32.703 C 46.967 32.825 46.969 32.947 46.969 33.069 C 46.969 35.048 46.969 37.028 46.969 39.007 L 46.97 39.008 Z" fill="#E31E24" transform="matrix(1, 0, 0, 1, 0, -3.552713678800501e-15)"/>
  <path d="M 46.966 18.846 C 46.966 21.799 46.966 24.752 46.966 27.705 C 46.966 27.928 46.972 28.15 46.903 28.369 C 46.669 29.109 46.182 29.572 45.42 29.745 C 45.249 29.784 45.079 29.796 44.906 29.796 C 40.326 29.796 35.747 29.795 31.167 29.796 C 30.73 29.796 30.317 29.713 29.956 29.456 C 29.321 29.005 29.031 28.392 29.122 27.616 C 29.16 27.298 29.322 27.022 29.508 26.766 C 29.735 26.453 29.996 26.167 30.27 25.895 C 31.455 24.724 32.645 23.557 33.832 22.387 C 34.505 21.724 35.174 21.057 35.848 20.394 C 37.577 18.688 39.299 16.976 41.04 15.283 C 42.629 13.738 44.191 12.168 45.773 10.617 C 46.114 10.283 46.459 9.953 46.803 9.621 C 46.824 9.6 46.847 9.578 46.871 9.561 C 46.886 9.552 46.908 9.549 46.926 9.549 C 46.949 9.549 46.96 9.566 46.96 9.59 C 46.961 9.692 46.966 9.793 46.966 9.895 C 46.966 12.878 46.966 15.862 46.966 18.846 Z" fill="#009846" transform="matrix(1, 0, 0, 1, 0, -3.552713678800501e-15)"/>
  <path d="M 48.25 18.773 C 48.25 15.8 48.25 12.827 48.25 9.853 C 48.25 9.762 48.252 9.67 48.252 9.58 C 48.252 9.555 48.257 9.538 48.282 9.534 C 48.3 9.531 48.326 9.527 48.337 9.536 C 48.405 9.597 48.471 9.661 48.536 9.724 C 51.07 12.22 53.604 14.717 56.138 17.213 C 58.983 20.015 61.828 22.818 64.673 25.621 C 65.006 25.949 65.338 26.279 65.628 26.646 C 65.812 26.879 65.971 27.126 66.064 27.409 C 66.199 27.825 66.158 28.236 65.978 28.625 C 65.642 29.354 65.061 29.74 64.259 29.796 C 64.158 29.803 64.055 29.799 63.953 29.799 C 59.445 29.799 54.937 29.799 50.429 29.799 C 50.237 29.799 50.044 29.799 49.852 29.766 C 49.125 29.643 48.304 29.011 48.252 27.907 C 48.247 27.796 48.249 27.684 48.249 27.573 C 48.249 24.64 48.249 21.707 48.249 18.774 L 48.25 18.773 Z" fill="#FFED00" transform="matrix(1, 0, 0, 1, 0, -3.552713678800501e-15)"/>
  <path d="M 60.691 19.829 C 60.584 19.829 60.553 19.769 60.513 19.729 C 59.166 18.404 57.822 17.077 56.473 15.755 C 56.355 15.639 56.305 15.523 56.306 15.357 C 56.313 14.191 56.309 13.025 56.31 11.859 C 56.31 11.798 56.311 11.737 56.316 11.677 C 56.319 11.633 56.342 11.601 56.39 11.596 C 56.44 11.592 56.491 11.589 56.542 11.589 C 57.843 11.589 59.145 11.589 60.446 11.589 C 60.497 11.589 60.548 11.59 60.598 11.594 C 60.659 11.598 60.687 11.637 60.689 11.693 C 60.691 11.775 60.691 11.855 60.691 11.936 C 60.691 13.194 60.691 14.451 60.691 15.709 L 60.691 19.829 L 60.691 19.829 Z" fill="#FFED00" transform="matrix(1, 0, 0, 1, 0, -3.552713678800501e-15)"/>
  <path d="M 54.549 41.314 C 54.308 41.794 54.184 42.303 54.173 42.837 C 54.171 42.956 54.115 43.022 54.02 43.077 C 53.878 43.159 53.727 43.22 53.569 43.257 C 52.824 43.432 52.078 43.449 51.333 43.261 C 51.055 43.19 50.798 43.069 50.555 42.916 C 50.422 42.832 50.369 42.726 50.371 42.564 C 50.379 41.823 50.375 41.082 50.375 40.34 C 50.375 39.589 50.375 38.838 50.375 38.086 C 50.375 38.005 50.375 37.924 50.382 37.843 C 50.385 37.794 50.424 37.78 50.469 37.789 C 50.489 37.792 50.508 37.799 50.527 37.807 C 51.255 38.121 52.022 38.182 52.8 38.135 C 53.197 38.11 53.588 38.036 53.959 37.886 C 54.073 37.839 54.16 37.819 54.255 37.928 C 54.358 38.046 54.508 38.048 54.653 38.034 C 54.987 38.003 55.321 37.971 55.655 37.936 C 56.131 37.886 56.605 37.832 57.081 37.78 C 57.586 37.725 58.091 37.67 58.597 37.615 C 59.032 37.568 59.466 37.522 59.901 37.474 C 60.346 37.424 60.791 37.377 61.234 37.321 C 61.549 37.281 61.864 37.279 62.179 37.295 C 62.219 37.297 62.259 37.308 62.297 37.319 C 62.346 37.333 62.362 37.406 62.328 37.444 C 62.257 37.523 62.163 37.559 62.069 37.596 C 61.747 37.724 61.413 37.816 61.076 37.893 C 60.085 38.121 59.084 38.299 58.079 38.455 C 57.346 38.568 56.613 38.683 55.879 38.794 C 55.427 38.863 54.974 38.928 54.521 38.988 C 54.329 39.013 54.136 39.025 53.941 39.009 C 53.839 39.001 53.741 38.982 53.647 38.938 C 53.528 38.884 53.446 38.801 53.416 38.673 C 53.399 38.604 53.387 38.534 53.367 38.466 C 53.355 38.424 53.319 38.402 53.275 38.401 C 53.231 38.399 53.195 38.424 53.178 38.462 C 53.163 38.497 53.148 38.54 53.152 38.578 C 53.177 38.827 53.287 39.021 53.52 39.135 C 53.668 39.207 53.825 39.238 53.991 39.247 C 54.309 39.265 54.619 39.203 54.931 39.159 C 55.555 39.072 56.178 38.976 56.801 38.881 C 57.504 38.774 58.209 38.671 58.911 38.552 C 59.612 38.434 60.312 38.305 61.004 38.139 C 61.301 38.068 61.596 37.987 61.885 37.891 C 62.144 37.804 62.405 37.711 62.599 37.499 C 62.639 37.455 62.688 37.463 62.732 37.502 C 62.821 37.58 62.858 37.686 62.881 37.796 C 62.907 37.914 62.925 38.035 62.941 38.156 C 62.98 38.447 62.868 38.627 62.582 38.697 C 62.148 38.804 61.709 38.891 61.274 38.996 C 59.377 39.455 57.484 39.929 55.621 40.514 C 55.212 40.643 54.816 40.802 54.444 41.013 C 54.212 41.144 53.998 41.298 53.821 41.498 C 53.733 41.597 53.654 41.704 53.616 41.834 C 53.602 41.885 53.611 41.935 53.655 41.971 C 53.696 42.004 53.782 41.986 53.819 41.936 C 53.836 41.912 53.849 41.884 53.864 41.858 C 54.005 41.613 54.205 41.432 54.452 41.298 C 54.488 41.277 54.521 41.283 54.549 41.312 L 54.549 41.314 Z" fill="white" transform="matrix(1, 0, 0, 1, 0, -3.552713678800501e-15)"/>
  <path d="M 50.394 34.52 C 50.461 34.489 50.513 34.533 50.567 34.556 C 50.992 34.739 51.438 34.824 51.897 34.862 C 52.303 34.895 52.707 34.912 53.115 34.867 C 53.348 34.841 53.578 34.808 53.807 34.759 C 53.856 34.749 53.905 34.736 53.955 34.728 C 54.028 34.716 54.071 34.746 54.081 34.821 C 54.086 34.86 54.097 34.898 54.108 34.947 C 54.339 34.933 54.55 34.865 54.765 34.818 C 56.164 34.512 57.562 34.201 58.961 33.895 C 59.129 33.858 59.301 33.828 59.473 33.818 C 59.836 33.799 60.231 34.055 60.375 34.386 C 60.437 34.528 60.4 34.635 60.261 34.721 C 60.156 34.786 60.037 34.816 59.918 34.843 C 58.432 35.18 56.946 35.516 55.46 35.851 C 55.143 35.923 54.825 35.989 54.507 36.057 C 54.457 36.068 54.405 36.072 54.358 36.089 C 54.141 36.166 54.074 36.206 54.082 36.459 C 54.087 36.631 54.08 36.804 54.083 36.976 C 54.085 37.081 54.037 37.145 53.947 37.192 C 53.782 37.277 53.61 37.333 53.429 37.368 C 52.651 37.522 51.874 37.527 51.099 37.347 C 50.891 37.299 50.694 37.22 50.51 37.104 C 50.415 37.044 50.361 36.972 50.372 36.856 C 50.377 36.806 50.373 36.755 50.373 36.704 C 50.373 36.075 50.372 35.446 50.373 34.817 C 50.373 34.717 50.357 34.615 50.392 34.517 L 50.394 34.52 Z" fill="white" transform="matrix(1, 0, 0, 1, 0, -3.552713678800501e-15)"/>
  <path d="M 50.153 42.923 C 50.183 42.94 50.213 42.95 50.235 42.969 C 50.611 43.286 51.054 43.458 51.529 43.547 C 52.217 43.676 52.905 43.655 53.587 43.495 C 53.826 43.438 54.052 43.347 54.254 43.204 C 54.347 43.138 54.419 43.065 54.423 42.933 C 54.427 42.824 54.496 42.808 54.584 42.883 C 54.769 43.041 54.801 43.176 54.697 43.393 C 54.62 43.552 54.507 43.678 54.36 43.778 C 54.12 43.942 53.852 44.039 53.571 44.088 C 52.608 44.256 51.649 44.245 50.701 43.98 C 50.544 43.936 50.396 43.868 50.255 43.787 C 50.044 43.665 49.959 43.488 50.009 43.249 C 50.034 43.132 50.05 43.01 50.153 42.923 L 50.153 42.923 Z" fill="white" transform="matrix(1, 0, 0, 1, 0, -3.552713678800501e-15)"/>
  <path d="M 51.962 33.818 C 52.412 33.803 52.857 33.841 53.294 33.945 C 53.432 33.978 53.567 34.025 53.698 34.08 C 53.782 34.114 53.857 34.169 53.931 34.223 C 53.987 34.265 54.05 34.317 54.042 34.395 C 54.033 34.488 53.943 34.481 53.877 34.498 C 53.282 34.658 52.675 34.697 52.062 34.646 C 51.718 34.618 51.373 34.585 51.04 34.483 C 50.846 34.423 50.651 34.362 50.482 34.245 C 50.434 34.212 50.43 34.155 50.469 34.116 C 50.543 34.042 50.634 33.998 50.729 33.962 C 50.949 33.879 51.178 33.83 51.413 33.82 C 51.596 33.813 51.779 33.819 51.962 33.819 L 51.962 33.818 Z" fill="white" transform="matrix(1, 0, 0, 1, 0, -3.552713678800501e-15)"/>
  <path d="M 61.981 42.402 C 61.825 42.411 61.676 42.383 61.533 42.328 C 61.338 42.253 61.249 42.116 61.246 41.907 C 61.243 41.752 61.292 41.608 61.35 41.467 C 61.501 41.1 61.728 40.774 61.937 40.439 C 61.96 40.402 62.007 40.385 62.035 40.429 C 62.256 40.78 62.497 41.121 62.65 41.51 C 62.702 41.644 62.73 41.782 62.73 41.925 C 62.73 42.121 62.635 42.253 62.457 42.323 C 62.305 42.384 62.145 42.412 61.981 42.401 L 61.981 42.402 Z" fill="white" transform="matrix(1, 0, 0, 1, 0, -3.552713678800501e-15)"/>
  <path d="M 61.526 39.674 C 61.305 39.679 61.181 39.502 61.248 39.299 C 61.256 39.274 61.284 39.251 61.309 39.238 C 61.344 39.219 61.384 39.206 61.423 39.197 C 61.8 39.112 62.177 39.029 62.555 38.947 C 62.66 38.924 62.7 38.958 62.716 39.072 C 62.723 39.122 62.725 39.173 62.725 39.223 C 62.725 39.312 62.684 39.383 62.604 39.419 C 62.511 39.46 62.416 39.498 62.318 39.521 C 62.09 39.574 61.86 39.617 61.631 39.663 C 61.592 39.67 61.55 39.672 61.528 39.675 L 61.526 39.674 Z" fill="white" transform="matrix(1, 0, 0, 1, 0, -3.552713678800501e-15)"/>
  <path d="M 52.37 37.901 C 51.972 37.919 51.579 37.877 51.193 37.78 C 51.105 37.758 51.017 37.733 50.931 37.703 C 50.891 37.689 50.869 37.653 50.877 37.606 C 50.886 37.554 50.924 37.545 50.966 37.553 C 51.016 37.562 51.064 37.581 51.113 37.591 C 51.878 37.751 52.644 37.755 53.412 37.613 C 53.47 37.603 53.534 37.578 53.57 37.652 C 53.598 37.709 53.555 37.768 53.456 37.793 C 53.24 37.849 53.021 37.892 52.797 37.9 C 52.655 37.905 52.512 37.9 52.37 37.9 L 52.37 37.901 Z" fill="white" transform="matrix(1, 0, 0, 1, 0, -3.552713678800501e-15)"/>
  <path d="M 32.771 41.761 C 32.771 41.061 32.771 40.361 32.771 39.66 C 32.771 39.589 32.768 39.517 32.772 39.446 C 32.783 39.242 32.889 39.161 33.097 39.2 C 33.207 39.22 33.315 39.248 33.424 39.269 C 34.284 39.437 35.149 39.559 36.028 39.547 C 36.344 39.542 36.66 39.542 36.975 39.546 C 37.424 39.552 37.871 39.517 38.316 39.467 C 38.482 39.449 38.606 39.491 38.727 39.608 C 39.085 39.955 39.453 40.29 39.816 40.632 C 39.928 40.737 40.039 40.84 40.205 40.851 C 40.276 40.856 40.31 40.904 40.311 40.975 C 40.311 41.036 40.312 41.096 40.312 41.157 C 40.312 42.081 40.312 43.005 40.312 43.929 C 40.312 43.98 40.309 44.03 40.312 44.081 C 40.319 44.199 40.263 44.277 40.158 44.318 C 40.007 44.376 39.856 44.436 39.7 44.479 C 39.07 44.653 38.424 44.735 37.774 44.778 C 36.92 44.834 36.065 44.843 35.211 44.778 C 34.521 44.726 33.834 44.644 33.174 44.419 C 33.078 44.387 32.985 44.346 32.893 44.303 C 32.814 44.265 32.773 44.196 32.772 44.107 C 32.771 44.025 32.77 43.944 32.77 43.863 C 32.77 43.163 32.77 42.462 32.77 41.761 L 32.771 41.761 Z" fill="white" transform="matrix(1, 0, 0, 1, 0, -3.552713678800501e-15)"/>
  <path d="M 38.641 38.688 C 38.564 38.64 38.503 38.604 38.445 38.565 C 37.699 38.071 36.954 37.577 36.209 37.083 C 35.953 36.912 35.932 36.796 36.152 36.578 C 36.56 36.176 36.432 36.215 36.909 36.452 C 37.136 36.565 37.357 36.693 37.581 36.811 C 37.662 36.853 37.745 36.892 37.833 36.917 C 37.915 36.941 37.993 36.914 38.05 36.843 C 38.102 36.779 38.097 36.713 38.06 36.645 C 37.958 36.458 37.857 36.271 37.752 36.086 C 37.657 35.917 37.559 35.752 37.462 35.585 C 37.41 35.495 37.418 35.406 37.487 35.331 C 37.709 35.094 37.938 34.863 38.201 34.669 C 38.305 34.592 38.378 34.602 38.477 34.687 C 38.538 34.74 38.592 34.801 38.646 34.862 C 38.967 35.229 39.287 35.597 39.607 35.965 C 39.674 36.041 39.737 36.123 39.834 36.165 C 39.92 36.203 40.003 36.194 40.061 36.14 C 40.129 36.076 40.15 35.972 40.099 35.889 C 40.056 35.822 40 35.761 39.947 35.7 C 39.611 35.319 39.274 34.939 38.939 34.557 C 38.878 34.488 38.823 34.415 38.769 34.342 C 38.715 34.268 38.715 34.191 38.772 34.117 C 38.778 34.109 38.783 34.1 38.79 34.093 C 39.091 33.805 39.387 33.512 39.696 33.234 C 39.83 33.114 39.919 33.13 40.04 33.257 C 40.103 33.323 40.158 33.397 40.213 33.47 C 40.69 34.116 41.168 34.76 41.642 35.407 C 41.882 35.735 41.852 35.66 41.59 35.91 C 40.683 36.771 39.773 37.628 38.863 38.486 C 38.797 38.548 38.729 38.608 38.64 38.688 L 38.641 38.688 Z" fill="white" transform="matrix(1, 0, 0, 1, 0, -3.552713678800501e-15)"/>
  <path d="M 43.602 37.19 C 43.577 37.236 43.56 37.286 43.529 37.323 C 43.463 37.399 43.392 37.472 43.318 37.542 C 42.412 38.404 41.507 39.265 40.6 40.125 C 40.26 40.448 40.234 40.445 39.884 40.116 C 39.618 39.864 39.351 39.615 39.086 39.363 C 38.854 39.143 38.857 39.072 39.094 38.849 C 40.046 37.948 40.997 37.046 41.949 36.145 C 42 36.096 42.052 36.046 42.108 36.003 C 42.222 35.916 42.323 35.912 42.443 35.997 C 42.517 36.049 42.586 36.11 42.652 36.173 C 42.903 36.411 43.153 36.649 43.401 36.89 C 43.459 36.947 43.511 37.009 43.559 37.074 C 43.581 37.105 43.587 37.148 43.602 37.19 L 43.602 37.19 Z" fill="white" transform="matrix(1, 0, 0, 1, 0, -3.552713678800501e-15)"/>
  <path d="M 41.949 39.456 C 42.077 39.277 42.463 38.922 42.659 38.804 C 42.694 38.853 42.73 38.9 42.764 38.95 C 42.887 39.128 43.041 39.271 43.22 39.392 C 43.414 39.522 43.619 39.632 43.826 39.739 C 44.042 39.851 44.257 39.964 44.47 40.081 C 44.605 40.154 44.729 40.243 44.832 40.357 C 45.023 40.568 45.04 40.89 44.859 41.109 C 44.716 41.281 44.553 41.435 44.369 41.563 C 44.114 41.739 43.822 41.723 43.581 41.528 C 43.47 41.438 43.378 41.329 43.306 41.206 C 43.203 41.032 43.102 40.856 43.004 40.679 C 42.877 40.449 42.742 40.223 42.581 40.014 C 42.437 39.827 42.272 39.665 42.062 39.554 C 42.017 39.529 41.972 39.507 41.95 39.457 L 41.949 39.456 Z" fill="white" transform="matrix(1, 0, 0, 1, 0, -3.552713678800501e-15)"/>
  <path d="M 38.354 39.051 C 38.127 39.075 37.927 39.105 37.728 39.116 C 37.393 39.135 37.057 39.133 36.723 39.155 C 36.481 39.171 36.236 39.134 35.992 39.13 C 35.382 39.12 34.774 39.08 34.169 38.999 C 33.786 38.949 33.407 38.883 33.039 38.759 C 32.953 38.73 32.866 38.701 32.783 38.663 C 32.523 38.545 32.519 38.535 32.579 38.207 C 32.754 38.256 32.929 38.304 33.102 38.356 C 33.641 38.516 34.194 38.588 34.751 38.634 C 35.024 38.657 35.298 38.677 35.572 38.693 C 36.242 38.73 36.913 38.706 37.584 38.683 C 37.777 38.676 37.945 38.706 38.094 38.83 C 38.17 38.893 38.278 38.916 38.356 39.051 L 38.354 39.051 Z" fill="white" transform="matrix(1, 0, 0, 1, 0, -3.552713678800501e-15)"/>
  <path d="M 35.995 37.453 C 35.628 37.483 35.328 37.512 35.028 37.53 C 34.369 37.569 33.717 37.656 33.078 37.828 C 32.98 37.855 32.88 37.868 32.779 37.83 C 32.668 37.789 32.576 37.709 32.589 37.659 C 32.614 37.568 32.698 37.547 32.77 37.512 C 32.982 37.411 33.211 37.361 33.438 37.313 C 34.063 37.18 34.698 37.113 35.336 37.064 C 35.43 37.057 35.504 37.077 35.58 37.15 C 35.688 37.253 35.822 37.329 35.995 37.453 Z" fill="white" transform="matrix(1, 0, 0, 1, 0, -3.552713678800501e-15)"/>
  <path d="M 34.257 38.032 C 34.257 38.032 35.107 37.96 35.532 37.924 C 35.785 37.903 36.038 37.884 36.291 37.863 C 36.511 37.844 36.714 37.883 36.891 38.028 C 36.977 38.098 37.075 38.154 37.166 38.218 C 37.179 38.228 37.189 38.253 37.187 38.27 C 37.185 38.284 37.164 38.304 37.15 38.306 C 37.099 38.312 37.049 38.31 36.998 38.311 C 36.368 38.319 35.738 38.301 35.11 38.258 C 34.725 38.232 34.031 38.199 33.96 38.133 C 33.888 38.067 34.257 38.032 34.257 38.032 Z" fill="white" transform="matrix(1, 0, 0, 1, 0, -3.552713678800501e-15)"/>
  <path d="M 44.283 25.238 C 43.927 25.238 43.571 25.238 43.216 25.238 C 43.155 25.238 43.094 25.24 43.034 25.237 C 42.729 25.225 42.63 25.098 42.708 24.804 C 42.865 24.218 43.03 23.633 43.186 23.046 C 43.24 22.844 43.363 22.706 43.55 22.625 C 44.029 22.418 44.515 22.412 45.001 22.601 C 45.223 22.687 45.365 22.844 45.428 23.079 C 45.578 23.647 45.736 24.212 45.89 24.778 C 45.904 24.827 45.912 24.877 45.916 24.928 C 45.93 25.092 45.849 25.201 45.684 25.227 C 45.604 25.24 45.522 25.237 45.441 25.237 C 45.055 25.238 44.669 25.237 44.283 25.237 L 44.283 25.238 Z" fill="white" transform="matrix(1, 0, 0, 1, 0, -3.552713678800501e-15)"/>
  <path d="M 37.138 25.238 C 36.741 25.238 36.345 25.228 35.949 25.241 C 35.578 25.254 35.454 25.081 35.561 24.729 C 35.726 24.187 35.873 23.639 36.012 23.09 C 36.072 22.851 36.208 22.697 36.429 22.606 C 36.872 22.426 37.321 22.422 37.769 22.571 C 38.033 22.66 38.209 22.831 38.278 23.123 C 38.4 23.635 38.553 24.139 38.692 24.646 C 38.716 24.734 38.739 24.823 38.754 24.912 C 38.78 25.069 38.696 25.193 38.538 25.224 C 38.459 25.24 38.377 25.237 38.296 25.237 C 37.91 25.239 37.524 25.237 37.138 25.237 L 37.138 25.238 Z" fill="white" transform="matrix(1, 0, 0, 1, 0, -3.552713678800501e-15)"/>
  <path d="M 39.144 25.761 C 39.108 25.667 39.085 25.578 39.115 25.469 C 39.283 24.876 39.444 24.281 39.6 23.684 C 39.659 23.459 39.796 23.309 40.004 23.225 C 40.51 23.02 41.013 23.03 41.508 23.262 C 41.672 23.338 41.779 23.464 41.828 23.644 C 41.983 24.22 42.148 24.794 42.302 25.369 C 42.336 25.495 42.367 25.627 42.302 25.755 C 42.227 25.907 42.083 25.923 41.94 25.926 C 41.131 25.941 40.321 25.94 39.513 25.926 C 39.369 25.924 39.227 25.906 39.145 25.761 L 39.144 25.761 Z" fill="white" transform="matrix(1, 0, 0, 1, 0, -3.552713678800501e-15)"/>
  <path d="M 42.507 25.844 C 42.812 25.854 43.116 25.856 43.417 25.787 C 43.567 25.752 43.714 25.712 43.846 25.634 C 43.955 25.568 44.066 25.54 44.192 25.545 C 44.323 25.55 44.455 25.546 44.605 25.546 C 44.565 25.831 44.439 26.038 44.212 26.18 C 44.047 26.284 43.864 26.345 43.674 26.387 C 43.415 26.446 43.151 26.461 42.887 26.474 C 42.775 26.479 42.663 26.48 42.552 26.495 C 42.293 26.53 42.096 26.66 41.984 26.901 C 41.911 27.059 41.821 27.204 41.698 27.328 C 41.115 27.916 39.91 27.851 39.492 26.973 C 39.449 26.883 39.416 26.785 39.337 26.714 C 39.205 26.597 39.063 26.504 38.88 26.493 C 38.636 26.478 38.392 26.467 38.149 26.446 C 37.853 26.422 37.567 26.356 37.3 26.221 C 37.056 26.098 36.923 25.889 36.839 25.642 C 36.826 25.602 36.837 25.555 36.889 25.554 C 37.062 25.549 37.235 25.547 37.408 25.552 C 37.455 25.554 37.505 25.582 37.547 25.608 C 37.759 25.741 37.999 25.796 38.24 25.824 C 38.472 25.851 38.706 25.869 38.94 25.846 C 39.35 25.849 39.707 25.985 40.008 26.266 C 40.116 26.366 40.203 26.359 40.304 26.223 C 40.493 25.971 40.996 25.994 41.142 26.262 C 41.212 26.39 41.282 26.354 41.361 26.311 C 41.485 26.243 41.592 26.148 41.707 26.067 C 41.949 25.896 42.227 25.865 42.508 25.846 L 42.507 25.844 Z" fill="white" transform="matrix(1, 0, 0, 1, 0, -3.552713678800501e-15)"/>
  <path d="M 40.991 21.479 C 41.116 21.776 41.193 22.077 41.243 22.387 C 41.249 22.427 41.259 22.466 41.264 22.506 C 41.301 22.775 41.299 22.779 41.029 22.78 C 40.775 22.781 40.521 22.78 40.267 22.778 C 40.19 22.777 40.157 22.74 40.164 22.663 C 40.194 22.309 40.262 21.963 40.393 21.629 C 40.41 21.583 40.427 21.536 40.442 21.498 C 40.409 21.426 40.344 21.411 40.298 21.371 C 40.076 21.181 40.021 20.964 40.126 20.692 C 40.185 20.54 40.186 20.538 40.043 20.443 C 39.906 20.352 39.782 20.248 39.679 20.121 C 39.529 19.936 39.429 19.728 39.43 19.483 C 39.43 19.425 39.456 19.388 39.518 19.385 C 39.569 19.383 39.619 19.382 39.67 19.382 C 40.371 19.382 41.072 19.382 41.773 19.382 C 41.833 19.382 41.894 19.383 41.955 19.39 C 41.985 19.394 42.01 19.419 42.008 19.452 C 42.001 19.532 42.001 19.615 41.98 19.691 C 41.908 19.966 41.756 20.188 41.522 20.352 C 41.456 20.398 41.386 20.44 41.317 20.483 C 41.253 20.522 41.245 20.569 41.283 20.634 C 41.363 20.77 41.39 20.914 41.349 21.071 C 41.313 21.206 41.231 21.304 41.123 21.385 C 41.083 21.415 41.041 21.443 40.992 21.477 L 40.991 21.479 Z" fill="white" transform="matrix(1, 0, 0, 1, 0, -3.552713678800501e-15)"/>
  <path d="M 42.507 25.844 C 42.459 25.86 42.412 25.881 42.363 25.889 C 42.012 25.95 41.705 26.098 41.468 26.366 C 41.382 26.462 41.287 26.484 41.17 26.474 C 41.092 26.467 41.07 26.446 41.076 26.359 C 41.08 26.3 41.105 26.239 41.049 26.168 C 40.86 26.168 40.657 26.167 40.455 26.168 C 40.377 26.168 40.351 26.216 40.358 26.288 C 40.362 26.328 40.37 26.369 40.365 26.409 C 40.362 26.437 40.342 26.462 40.306 26.467 C 40.181 26.484 40.074 26.477 39.976 26.369 C 39.73 26.098 39.419 25.936 39.053 25.884 C 39.014 25.879 38.977 25.858 38.94 25.844 C 39.015 25.833 39.1 25.846 39.145 25.761 C 39.25 25.828 39.366 25.854 39.491 25.853 C 40.314 25.851 41.137 25.851 41.959 25.853 C 42.085 25.853 42.199 25.823 42.302 25.754 C 42.344 25.843 42.43 25.833 42.507 25.843 L 42.507 25.844 Z" fill="#009846" transform="matrix(1, 0, 0, 1, 0, -3.552713678800501e-15)"/>
  <path d="M 53.553 19.319 C 53.754 19.313 53.966 19.329 54.176 19.379 C 54.5 19.455 54.789 19.596 55.023 19.834 C 55.166 19.978 55.305 20.127 55.433 20.284 C 55.88 20.836 56.471 21.114 57.163 21.208 C 57.445 21.247 57.728 21.276 58.014 21.266 C 58.055 21.265 58.096 21.266 58.136 21.269 C 58.397 21.29 58.524 21.426 58.505 21.687 C 58.493 21.848 58.458 22.008 58.427 22.166 C 58.186 23.369 57.943 24.571 57.702 25.774 C 57.597 26.301 57.496 26.829 57.392 27.356 C 57.383 27.405 57.366 27.453 57.354 27.502 C 57.315 27.645 57.22 27.725 57.076 27.749 C 57.035 27.755 56.995 27.764 56.955 27.762 C 56.498 27.735 56.041 27.706 55.605 27.547 C 55.137 27.377 54.734 27.116 54.4 26.745 C 54.181 26.503 53.99 26.241 53.802 25.976 C 53.655 25.769 53.503 25.565 53.327 25.381 C 53.02 25.058 52.646 24.876 52.197 24.853 C 51.882 24.836 51.566 24.829 51.259 24.925 C 50.982 25.011 50.741 25.152 50.546 25.373 C 50.062 25.924 50.329 26.858 51.082 27.055 C 51.49 27.161 51.888 27.114 52.282 26.983 C 52.291 26.98 52.3 26.975 52.31 26.971 C 52.777 26.764 52.828 26.332 52.42 26.02 C 52.139 25.806 51.823 25.783 51.491 25.86 C 51.453 25.869 51.419 25.895 51.385 25.916 C 51.341 25.943 51.342 26.016 51.383 26.046 C 51.478 26.113 51.586 26.135 51.7 26.139 C 51.798 26.142 51.875 26.188 51.937 26.26 C 52.081 26.43 52.009 26.684 51.798 26.755 C 51.327 26.914 50.702 26.529 50.643 26.037 C 50.611 25.77 50.741 25.568 50.942 25.407 C 51.046 25.324 51.167 25.266 51.295 25.232 C 51.945 25.058 52.532 25.185 53.017 25.653 C 53.637 26.252 53.414 27.105 52.794 27.468 C 52.681 27.534 52.56 27.595 52.435 27.631 C 51.928 27.78 51.418 27.808 50.9 27.676 C 50.273 27.517 49.626 26.98 49.608 25.997 C 49.605 25.804 49.654 25.616 49.726 25.435 C 50.279 24.05 50.832 22.665 51.383 21.28 C 51.476 21.044 51.56 20.805 51.654 20.569 C 51.714 20.419 51.775 20.268 51.849 20.124 C 52.03 19.773 52.319 19.547 52.698 19.431 C 52.973 19.347 53.254 19.312 53.554 19.319 L 53.553 19.319 Z" fill="white" transform="matrix(1, 0, 0, 1, 0, -3.552713678800501e-15)"/>
  <path d="M 36.585 43.963 C 35.841 43.973 35.4 43.486 35.304 42.908 C 35.284 42.787 35.281 42.665 35.317 42.547 C 35.358 42.411 35.395 42.274 35.45 42.143 C 35.665 41.63 35.885 41.119 36.106 40.608 C 36.158 40.487 36.221 40.375 36.36 40.323 C 36.559 40.249 36.72 40.274 36.854 40.434 C 36.919 40.51 36.975 40.599 37.015 40.69 C 37.229 41.182 37.438 41.676 37.645 42.17 C 37.684 42.263 37.704 42.364 37.74 42.458 C 37.959 43.041 37.473 43.876 36.737 43.947 C 36.677 43.952 36.616 43.959 36.585 43.963 Z" fill="#E31E24" transform="matrix(1, 0, 0, 1, 0, -3.552713678800501e-15)"/>
  <path d="M 33.64 42.411 C 33.64 42.787 33.64 43.162 33.64 43.538 C 33.64 43.609 33.643 43.68 33.638 43.751 C 33.63 43.885 33.551 43.961 33.426 43.958 C 33.316 43.956 33.238 43.886 33.225 43.769 C 33.219 43.709 33.221 43.648 33.221 43.587 C 33.221 42.796 33.221 42.004 33.221 41.212 C 33.221 41.141 33.22 41.069 33.23 41 C 33.247 40.898 33.352 40.825 33.454 40.836 C 33.549 40.846 33.625 40.916 33.634 41.012 C 33.641 41.083 33.639 41.154 33.639 41.225 C 33.639 41.62 33.639 42.016 33.639 42.412 L 33.64 42.411 Z" fill="#E31E24" transform="matrix(1, 0, 0, 1, 0, -3.552713678800501e-15)"/>
  <path d="M 33.642 40.044 C 33.642 40.127 33.644 40.157 33.642 40.187 C 33.634 40.315 33.554 40.392 33.435 40.391 C 33.314 40.39 33.229 40.312 33.223 40.185 C 33.218 40.106 33.221 40.024 33.235 39.947 C 33.258 39.827 33.333 39.775 33.45 39.783 C 33.566 39.792 33.624 39.849 33.639 39.976 C 33.644 40.016 33.643 40.056 33.643 40.044 L 33.642 40.044 Z" fill="#E31E24" transform="matrix(1, 0, 0, 1, 0, -3.552713678800501e-15)"/>
  <path d="M 42.486 36.743 C 42.479 36.757 42.468 36.797 42.444 36.828 C 42.402 36.884 42.355 36.939 42.304 36.988 C 41.789 37.479 41.272 37.968 40.756 38.458 C 40.688 38.523 40.614 38.573 40.512 38.554 C 40.377 38.528 40.303 38.39 40.375 38.279 C 40.43 38.194 40.501 38.118 40.573 38.048 C 40.798 37.827 41.027 37.611 41.256 37.394 C 41.476 37.183 41.698 36.974 41.921 36.766 C 41.988 36.704 42.058 36.644 42.132 36.591 C 42.201 36.542 42.282 36.533 42.365 36.558 C 42.428 36.577 42.487 36.655 42.485 36.743 L 42.486 36.743 Z" fill="#E31E24" transform="matrix(1, 0, 0, 1, 0, -3.552713678800501e-15)"/>
  <path d="M 40.117 38.987 C 40.112 39.003 40.108 39.045 40.087 39.077 C 40.025 39.171 39.94 39.243 39.838 39.291 C 39.763 39.327 39.674 39.305 39.617 39.246 C 39.559 39.185 39.546 39.102 39.586 39.023 C 39.644 38.911 39.735 38.834 39.849 38.784 C 39.987 38.723 40.113 38.808 40.116 38.987 L 40.117 38.987 Z" fill="#E31E24" transform="matrix(1, 0, 0, 1, 0, -3.552713678800501e-15)"/>
  <path d="M 36.55 40.716 C 36.818 41.329 37.106 41.91 37.307 42.528 C 37.418 42.869 37.294 43.22 37.007 43.411 C 36.701 43.616 36.342 43.612 36.041 43.383 C 35.769 43.178 35.68 42.902 35.748 42.575 C 35.767 42.486 35.8 42.399 35.835 42.316 C 36.044 41.82 36.256 41.326 36.468 40.833 C 36.483 40.798 36.511 40.769 36.549 40.716 L 36.55 40.716 Z" fill="white" transform="matrix(1, 0, 0, 1, 0, -3.552713678800501e-15)"/>
</svg>